<?xml version="1.0" encoding="UTF-8"?>
<svg width="136px" height="25px" viewBox="0 0 136 25" version="1.1" xmlns="http://www.w3.org/2000/svg" xmlns:xlink="http://www.w3.org/1999/xlink">
    <title>Icônes/Logo/Typographique</title>
    <g id="Icônes/Logo/Typographique" stroke="none" stroke-width="1" fill="none" fill-rule="evenodd">
        <path d="M134.046756,9 L134.049385,9.00978422 L134.075674,9.00978422 L134.74209,12.0275181 L134.075674,12.0275181 C134.074359,12.0233249 134.07173,12.0191317 134.069101,12.0149384 L134.069101,12.0149384 L134.046756,12.0149384 C133.634025,11.2042457 133.131912,10.5514982 132.119801,10.172709 C131.507276,9.95046737 130.712046,9.82467022 129.638156,9.82467022 C127.935968,9.82467022 127.491691,10.1517428 127.491691,11.0071634 L127.491691,11.0071634 L127.491691,15.6169302 C127.491691,15.8811042 127.546897,16.0837774 127.66651,16.2221543 C127.786123,16.3465537 127.960943,16.416441 128.208056,16.416441 L128.208056,16.416441 L130.203361,16.416441 C130.942071,16.416441 131.7189,15.6826243 132.050136,14.0528523 L132.050136,14.0528523 L132.790161,14.0528523 L132.790161,14.0668297 L132.817764,14.0668297 L132.817764,19.3698786 L132.077739,19.3698786 C132.076425,19.3628898 132.07511,19.3572989 132.073796,19.3503101 L132.073796,19.3503101 L132.050136,19.3503101 C131.868745,18.3886608 131.599286,17.8058006 131.173411,17.501092 C130.918411,17.3277715 130.60952,17.2480999 130.22965,17.2480999 L130.22965,17.2480999 L128.342127,17.2480999 C127.861046,17.2480999 127.491691,17.6562418 127.491691,18.4319909 L127.491691,18.4319909 L127.491691,22.9592906 C127.491691,23.3185114 127.625763,23.6162313 127.830814,23.8286887 C128.042437,24.0369529 128.323725,24.1585568 128.614215,24.1585568 L128.614215,24.1585568 L130.388696,24.1585568 C132.790161,24.1585568 134.193972,23.4247401 135.228429,20.9800821 L135.228429,20.9800821 L135.968454,20.9800821 L135.96451,21.0010483 L136,21.0010483 L135.334898,25 L122.018402,25 L122.018402,24.9734428 L122,24.9734428 L122,24.1585568 C124.291052,24.0774876 124.734016,23.750415 124.734016,23.017996 L124.734016,23.017996 L124.734016,11.362191 C124.734016,10.7150345 124.651206,10.3502228 124.27265,10.1363676 C123.887522,9.92670569 123.207962,9.86520486 122.018402,9.82467022 L122.018402,9.82467022 L122.018402,9.814886 L122.018402,9.814886 L122,9.814886 L122,9 L134.046756,9 Z M104.905728,9.00026228 C107.56765,9.00945091 112.059454,9.28180447 112.059454,13.1622378 C112.059454,15.2027972 110.514194,16.5916084 108.892608,17.2447552 L108.892608,17.2447552 L112.814676,23.0405594 C113.415908,23.9384615 113.869845,24.2657343 115,24.3454545 L115,24.3454545 L115,25 L111.985806,25 C111.533208,25 111.229245,24.8363636 110.854312,24.2657343 L110.854312,24.2657343 L106.482325,17.572028 C105.990894,17.572028 105.464649,17.5300699 104.974558,17.4895105 L104.974558,17.4895105 L104.974558,22.8769231 C104.974558,23.7748252 105.352169,24.1006993 106.933583,24.1832168 L106.933583,24.1832168 L106.933583,25 L100,25 L100,24.1832168 C101.809052,24.1006993 102.186663,23.6937063 102.186663,22.7958042 L102.186663,22.7958042 L102.186663,11.2853147 C102.186663,10.1426573 101.921532,9.8979021 100,9.81538462 L100,9.81538462 L100,9 Z M84.2440496,9 L84.2440496,9.80851432 C83.4904794,9.84866315 82.5214213,10.2930691 82.5214213,11.2220299 C82.5214213,11.9100978 82.7726114,12.63693 83.2023121,13.6877217 L83.2023121,13.6877217 L86.3951037,21.6067319 L89.016661,13.1616336 C89.2321489,12.5150991 89.483339,11.8284157 89.483339,11.2621788 C89.483339,10.4550489 88.9809589,9.97049407 87.6893064,9.80851432 L87.6893064,9.80851432 L87.6893064,9 L93,9 L93,9.80851432 C91.9238354,9.89019642 91.2416695,10.333218 90.7035872,11.8284157 L90.7035872,11.8284157 L86.7559504,23.222376 C86.3262496,24.4739119 86.0725094,25 85.5714043,25 C85.0677491,25 84.8905134,24.4337631 84.3868582,23.222376 L84.3868582,23.222376 L79.9381163,11.9100978 C79.4344611,10.6170286 78.933356,9.89019642 78,9.80851432 L78,9.80851432 L78,9 L84.2440496,9 Z M59.9569819,9 L59.9569819,9.80047974 C57.4250397,9.96084982 56.9906252,10.2802193 56.9906252,11.8003084 L56.9906252,11.8003084 L56.9906252,19.2801336 C56.9906252,22.5999315 58.2565964,23.8006511 61.330914,23.8006511 C64.0068043,23.8006511 66.0336433,22.3998115 66.0336433,18.8798938 L66.0336433,18.8798938 L66.0336433,12.7597875 C66.0336433,10.3199692 65.3820216,9.96084982 63.2844938,9.80047974 L63.2844938,9.80047974 L63.2844938,9 L69,9 L69,9.80047974 C67.4448477,9.96084982 66.901187,10.7997087 66.901187,12.5199178 L66.901187,12.5199178 L66.901187,19.2006339 C66.901187,23.0810417 64.406517,25 60.5353444,25 C56.62947,25 54.314735,23.4004112 54.314735,19.9202433 L54.314735,19.9202433 L54.314735,12.3992975 C54.314735,10.4405894 53.9522945,10.0389788 52,9.80047974 L52,9.80047974 L52,9 L59.9569819,9 Z M35.4993532,9 C39.8680466,9 43,12.1210486 43,17.0006853 C43,21.8803221 39.8680466,25 35.4993532,25 C31.1306598,25 28,21.8803221 28,17.0006853 C28,12.1210486 31.1306598,9 35.4993532,9 Z M10.2452518,0 L10.2452518,0.779290099 C7.13166279,0.779290099 6.69807622,1.32372565 6.69807622,4.28342674 L6.69807622,20.4056579 C6.69807622,23.2092341 7.13166279,23.755004 9.52217865,23.755004 L9.52217865,23.755004 L11.8753829,23.755004 C14.8808969,23.755004 18.066536,22.8209234 20.1675652,18.6922872 L20.1675652,18.6922872 L21,18.6922872 L19.8420537,25 C18.8655189,24.9239392 17.8851244,24.8452095 16.871278,24.7678143 C15.8947433,24.7291166 14.9169219,24.6890846 13.9030756,24.6890846 L13.9030756,24.6890846 L0,24.6890846 L0,23.9111289 C3.14961402,23.9111289 3.58320059,23.365359 3.58320059,20.4056579 L3.58320059,20.4056579 L3.58320059,4.28342674 C3.58320059,1.32372565 3.14961402,0.779290099 0.577686558,0.779290099 L0.577686558,0.779290099 L0.577686558,0 L10.2452518,0 Z M35.4993532,9.80047974 C31.7865459,9.80047974 30.694696,13.5205174 30.694696,17.0006853 C30.694696,20.4808533 31.7865459,24.2008909 35.4993532,24.2008909 C39.2134541,24.2008909 40.305304,20.4808533 40.305304,17.0006853 C40.305304,13.5205174 39.2134541,9.80047974 35.4993532,9.80047974 Z M106.482325,9.81538462 C105.427156,9.81538462 104.974558,10.3062937 104.974558,11.2041958 L104.974558,11.2041958 L104.974558,16.6727273 C105.389663,16.8363636 105.803428,16.9174825 106.217193,16.9174825 C108.366363,16.9174825 109.422871,15.6111888 109.422871,13.3258741 C109.422871,11.2041958 108.55383,9.81538462 106.482325,9.81538462 Z" id="Louvre-typographie" fill="#FFFFFF"></path>
    </g>
</svg>